<?xml version="1.0" encoding="utf-8"?>
<!-- Generator: Adobe Illustrator 26.0.1, SVG Export Plug-In . SVG Version: 6.00 Build 0)  -->
<svg version="1.1" id="Layer_1" xmlns="http://www.w3.org/2000/svg" xmlns:xlink="http://www.w3.org/1999/xlink" x="0px" y="0px"
	 viewBox="0 0 480 480" style="enable-background:new 0 0 480 480;" xml:space="preserve">
<style type="text/css">
	.st0{fill:#93D7E4;}
	.st1{clip-path:url(#SVGID_00000139257210855148446530000008822189978298154942_);}
	.st2{fill:#E4B893;}
	.st3{fill:#3F3B3C;}
</style>
<g>
	
		<ellipse transform="matrix(0.2361 -0.9717 0.9717 0.2361 -64.9202 436.0814)" class="st0" cx="244.91" cy="259.33" rx="63.34" ry="63.34"/>
	<g>
		<defs>
			<path id="SVGID_1_" d="M308.25,259.33c0,34.98-28.36,63.34-63.34,63.34c-21.11,0-39.81-10.33-51.32-26.21
				c-7.56-10.43-27.2-23.28-27.2-37.15c0-34.98,10.67-99.32,72-101.98c28.29,0,99.33,22.67,66.9,82.82
				C307.21,246.2,308.25,252.65,308.25,259.33z"/>
		</defs>
		<clipPath id="SVGID_00000088824789515848537490000002200539201538827421_">
			<use xlink:href="#SVGID_1_"  style="overflow:visible;"/>
		</clipPath>
		<g style="clip-path:url(#SVGID_00000088824789515848537490000002200539201538827421_);">
			<path class="st2" d="M241.2,324.27c0.39-4.69-1.38-18.52-3.82-21.75c-3.62-4.79-17.01-7.75-22.53-14.21
				c-10.61-12.43-26.66-7.41-31.06-8.19c-4.4-0.78-7.93-9.13,0-14.37c12.94-8.54,30.71,2.12,33.4-2.33
				c-0.82-17.78-12.53-36.7-22.85-50.34c-3.89-5.14-12.89-18.2-4.33-23.19c7.47-4.35,13.75,3.85,17.03,9.54
				c3.27,5.69,6.76,11.5,10.24,17.16c1.79,2.92,3.64,5.81,5.6,8.63c1.01,1.46,3.66,6.4,6.04,4.97c0.91-0.55,1.12-1.17,1.07-4.58
				c-0.1-6.21-4.11-28.74-6.68-40.2c-1.09-4.86-1.8-16.18,7-17.27c11.49-1.42,10.45,16.31,11.61,28.35
				c0.62,6.44,2.66,24.6,3.24,28.87c0.28,2.05,1.49,4.11,2.78,4.63c1.29,0.52,2.79-1.3,3.59-3.11c1.65-3.72,3.75-16.98,5.27-23.01
				c2.2-8.67,1.68-33.27,13.72-30.55c7.38,1.67,6.77,9.57,5.65,15.46c-1.76,9.23-3.97,18.22-4.99,27.6
				c-0.53,4.85-1.21,9.69-1.7,14.55c-0.21,2.06,0,2.98,1.29,3.49c1.29,0.52,2.46-0.39,3.24-1.42c2.52-3.36,4.42-7.44,6.59-11.04
				c3.66-6.04,6.98-12.27,10.56-18.35c2.48-4.22,6.22-9.06,11.6-6.24c9.44,4.95-1.41,18.03-4.16,23.72s-12.3,22.91-13.07,27.31
				c-1.37,7.78-0.9,15.68-1.58,23.5c-0.66,7.53-2.73,15.02-6.2,21.75c-2.9,5.61-7.89,11.22-7.49,17.92
				c0.26,4.4,0.07,12.69,0.07,12.69"/>
			<g>
				<g>
					<path class="st3" d="M242.4,183.8c-0.22-2.24-0.5-4.72-1.16-7.42c-0.34-1.34-0.77-2.75-1.45-4.16
						c-0.68-1.4-1.63-2.87-3.12-3.97c-1.46-1.15-3.45-1.65-5.29-1.63c-1.81,0.04-3.78,0.49-5.48,1.63
						c-1.71,1.13-2.94,2.93-3.63,4.79c-0.7,1.88-0.98,3.85-1.05,5.83c-0.05,1.98,0.1,3.97,0.47,5.99c0.4,1.9,0.81,3.85,1.23,5.82
						c0.8,3.92,1.58,8,2.34,12.21c0.75,4.21,1.49,8.54,2.15,12.99c0.32,2.22,0.64,4.47,0.87,6.73l0.15,1.69
						c0.03,0.56,0.06,1.08,0.07,1.66c0.01,0.57,0.01,1.14-0.02,1.67c-0.02,0.51-0.1,1.06-0.17,1.18c-0.03,0.05,0.02-0.01-0.07,0.07
						l-0.09,0.06c-0.02,0-0.03,0-0.04,0.01c-0.02,0.02-0.05,0.04-0.06,0.02c-0.03,0.02-0.25-0.01-0.58-0.23
						c-0.67-0.47-1.38-1.35-2.01-2.27c-1.3-2.01-2.62-4.03-3.95-6.07c-0.66-1.02-1.32-2.04-1.99-3.06l-1-1.54l-0.95-1.59
						c-1.27-2.13-2.55-4.27-3.83-6.42c-1.29-2.15-2.58-4.32-3.88-6.5c-1.31-2.13-2.56-4.47-4.18-6.61
						c-1.59-2.15-3.46-4.19-5.89-5.75c-1.24-0.74-2.63-1.34-4.15-1.59c-1.53-0.2-3.12-0.04-4.55,0.49c-0.7,0.28-1.37,0.6-2.02,0.98
						c-0.64,0.41-1.27,0.87-1.81,1.45c-1.12,1.13-1.84,2.67-2.1,4.2c-0.28,1.54-0.14,3.03,0.13,4.44c0.28,1.41,0.73,2.74,1.25,4.01
						c1.06,2.55,2.42,4.9,3.9,7.15c1.48,2.26,3.13,4.36,4.67,6.44c6.16,8.42,11.71,17.3,15.7,26.71c1.98,4.7,3.55,9.54,4.39,14.44
						c0.17,1.23,0.43,2.45,0.5,3.68l0.14,1.57c0.01,0.04-0.01,0.07-0.04,0.09c-0.04,0.03-0.01,0.02-0.23,0.11
						c-0.76,0.25-2.01,0.18-3.17,0.04c-1.19-0.14-2.4-0.36-3.62-0.58c-4.88-0.91-9.91-1.78-14.95-1.35
						c-2.51,0.23-5.01,0.76-7.33,1.76c-1.17,0.47-2.26,1.1-3.32,1.77c-0.52,0.37-1.02,0.76-1.53,1.15
						c-0.45,0.46-0.94,0.88-1.36,1.38c-0.39,0.52-0.83,1-1.12,1.6c-0.15,0.29-0.33,0.57-0.46,0.87l-0.35,0.93
						c-0.38,1.25-0.58,2.6-0.37,3.9c0.36,2.57,1.75,5.07,4.26,6.26c0.61,0.29,1.35,0.47,1.97,0.5c0.67,0.08,1.2,0.01,1.8,0.01
						c1.1-0.08,2.2-0.16,3.28-0.24c2.14-0.17,4.22-0.26,6.27-0.21c2.05,0.02,4.03,0.3,5.95,0.67c0.94,0.26,1.9,0.42,2.79,0.78
						c0.45,0.16,0.9,0.32,1.35,0.48c0.44,0.18,0.85,0.4,1.28,0.6c0.42,0.21,0.86,0.37,1.25,0.63c0.39,0.25,0.78,0.49,1.17,0.74
						c0.81,0.44,1.47,1.08,2.19,1.63c0.74,0.53,1.3,1.24,1.94,1.85c0.6,0.6,1.29,1.34,1.97,2c2.85,2.52,6.01,4.11,8.96,5.55
						c2.96,1.43,5.8,2.65,8.29,4.01c1.22,0.7,2.39,1.41,3.33,2.26c0.43,0.44,0.87,0.87,1.14,1.36c0.28,0.51,0.53,1.07,0.74,1.64
						c0.84,2.27,1.29,4.51,1.7,6.51c0.77,4.02,1.12,7.21,1.32,9.37c0.2,2.17,0.17,3.31,0.28,3.32c0.08,0.01,0.3-1.16,0.27-3.36
						c-0.03-2.2-0.22-5.43-0.86-9.53c-0.34-2.05-0.72-4.32-1.55-6.76c-0.2-0.61-0.45-1.23-0.79-1.86c-0.35-0.66-0.85-1.18-1.35-1.7
						c-1.05-1-2.27-1.76-3.54-2.53c-2.56-1.47-5.39-2.75-8.29-4.22c-2.88-1.47-5.92-3.09-8.46-5.42c-0.61-0.64-1.22-1.28-1.84-1.94
						c-0.67-0.68-1.28-1.44-2.07-2.03c-0.76-0.61-1.49-1.3-2.36-1.8c-0.42-0.27-0.84-0.54-1.27-0.82c-0.43-0.27-0.9-0.46-1.35-0.7
						c-0.46-0.22-0.91-0.47-1.39-0.66c-0.48-0.18-0.97-0.36-1.45-0.54c-0.96-0.4-1.99-0.58-3-0.88c-2.05-0.42-4.17-0.73-6.32-0.78
						c-2.14-0.08-4.32-0.01-6.49,0.15c-1.08,0.07-2.16,0.15-3.22,0.2c-1.07,0.02-2,0.03-2.72-0.35c-0.77-0.37-1.46-1.04-1.97-1.84
						c-0.5-0.81-0.81-1.75-0.93-2.71c-0.25-1.94,0.49-3.92,1.84-5.47c1.34-1.57,3.32-2.72,5.36-3.59c2.06-0.87,4.3-1.33,6.6-1.52
						c4.63-0.36,9.4,0.48,14.28,1.42c1.23,0.23,2.47,0.46,3.77,0.63c1.31,0.13,2.64,0.34,4.31-0.15c0.21-0.07,0.42-0.18,0.7-0.32
						c0.24-0.16,0.44-0.37,0.67-0.55c0.22-0.19,0.37-0.44,0.56-0.66c0.13-0.1,0.09-0.25,0.1-0.39c0-0.14,0.02-0.28,0-0.42
						l-0.17-2.17c-0.06-1.31-0.33-2.58-0.51-3.88c-0.86-5.15-2.48-10.18-4.5-15.03c-4.07-9.71-9.71-18.77-15.92-27.33
						c-1.58-2.15-3.17-4.19-4.57-6.34c-1.4-2.15-2.67-4.37-3.62-6.68c-0.92-2.28-1.56-4.74-1.18-6.85c0.31-2.11,1.97-3.63,4.1-4.4
						c1.02-0.37,2.08-0.45,3.13-0.32c1.05,0.18,2.07,0.62,3.05,1.2c1.94,1.25,3.63,3.05,5.07,5.03c1.48,1.96,2.65,4.15,3.99,6.35
						c1.3,2.19,2.6,4.36,3.89,6.53c1.29,2.16,2.57,4.31,3.84,6.45l0.95,1.6l1.01,1.57c0.67,1.04,1.35,2.08,2.02,3.11
						c1.34,2.06,2.67,4.1,3.98,6.13c0.74,1.04,1.5,2.1,2.78,3.03c0.64,0.43,1.61,0.9,2.76,0.7c0.29-0.03,0.53-0.13,0.78-0.24
						l0.36-0.17c0.09-0.06,0.18-0.11,0.28-0.18c0.39-0.26,0.85-0.78,1.05-1.27c0.39-0.97,0.37-1.62,0.43-2.27
						c0.03-0.64,0.03-1.24,0.02-1.84c-0.01-0.6-0.05-1.23-0.08-1.83l-0.16-1.78c-0.24-2.34-0.57-4.61-0.89-6.86
						c-0.67-4.49-1.41-8.85-2.17-13.08c-0.76-4.23-1.55-8.32-2.36-12.28c-0.42-1.96-0.82-3.88-1.22-5.77
						c-0.33-1.8-0.47-3.62-0.42-5.36c0.08-3.46,1.09-6.79,3.38-8.27c1.11-0.75,2.5-1.11,3.89-1.14c1.35,0,2.57,0.3,3.51,1.04
						c0.96,0.7,1.69,1.76,2.24,2.9c0.56,1.15,0.95,2.38,1.25,3.59c0.61,2.44,0.89,4.82,1.11,6.99c0.26,2.69,0.42,5.75,0.65,9.16
						c0.2,3.44,0.71,7.1,1.12,11.06c0.44,3.96,0.91,8.19,1.41,12.67c0.25,2.24,0.51,4.54,0.77,6.9c0.07,0.59,0.14,1.19,0.21,1.8
						c0.11,0.72,0.3,1.41,0.56,2.08c0.26,0.67,0.61,1.31,1.07,1.93c0.23,0.31,0.49,0.61,0.81,0.9c0.15,0.14,0.34,0.28,0.53,0.42
						c0.21,0.14,0.37,0.24,0.71,0.38c0.77,0.33,1.75,0.2,2.41-0.16c0.63-0.32,1.05-0.72,1.43-1.12c0.72-0.81,1.23-1.66,1.65-2.58
						c0.76-1.86,1.14-3.56,1.58-5.34c0.82-3.53,1.51-7.14,2.25-10.81c0.37-1.83,0.74-3.69,1.16-5.53l0.32-1.37
						c0.11-0.46,0.24-0.99,0.33-1.48c0.2-0.99,0.35-1.97,0.5-2.95c0.56-3.91,0.96-7.85,1.66-11.76c0.35-1.95,0.76-3.9,1.32-5.78
						c0.56-1.88,1.29-3.7,2.31-5.22c1.04-1.5,2.38-2.56,4-2.65c0.8-0.04,1.69,0.02,2.54,0.33c0.87,0.24,1.62,0.67,2.26,1.19
						c1.28,1.07,1.95,2.8,2.18,4.71c0.21,1.93,0.06,3.98-0.26,6.04c-0.71,4.16-1.66,8.46-2.51,12.76c-0.87,4.31-1.7,8.67-2.31,13.1
						c-0.57,4.46-1.03,8.83-1.55,13.26l-0.38,3.31c-0.1,1.11-0.35,2.13-0.18,3.66c0.06,0.39,0.17,0.83,0.42,1.28
						c0.25,0.45,0.64,0.83,1.02,1.07c0.39,0.25,0.7,0.39,1.17,0.52c0.45,0.12,0.95,0.14,1.4,0.06c1.85-0.37,2.77-1.73,3.42-2.61
						c2.69-3.8,4.5-7.85,6.81-11.55c2.28-3.82,4.42-7.69,6.57-11.5c1.08-1.9,2.16-3.79,3.24-5.67c1.07-1.84,2.21-3.59,3.62-4.92
						c1.4-1.34,3.05-2.1,4.72-1.75c0.83,0.17,1.68,0.55,2.45,1.05c0.76,0.5,1.36,1.13,1.76,1.85c0.81,1.46,0.72,3.39,0.23,5.26
						c-0.5,1.88-1.33,3.73-2.27,5.52c-0.94,1.8-1.99,3.54-3.05,5.3c-0.53,0.88-1.06,1.77-1.56,2.7c-0.52,0.97-0.92,1.85-1.38,2.75
						c-1.84,3.59-3.65,7.12-5.43,10.59c-1.76,3.49-3.49,6.92-5.01,10.4c-0.38,0.87-0.74,1.75-1.08,2.65
						c-0.15,0.47-0.33,0.9-0.45,1.41l-0.19,0.76c-0.05,0.24-0.08,0.47-0.12,0.7c-0.29,1.85-0.49,3.68-0.62,5.48
						c-0.51,7.22-0.23,14-1.02,20.2c-0.79,6.2-2.48,11.84-4.66,16.67c-2.12,4.84-5.18,8.72-6.86,12.78
						c-0.86,2.01-1.37,4.04-1.47,5.93c-0.05,0.95,0.02,1.87,0.07,2.67c0.04,0.83,0.08,1.62,0.11,2.36c0.09,3,0.16,5.32,0.2,6.9
						c0.05,1.58,0.11,2.41,0.19,2.41c0.09,0,0.19-0.82,0.28-2.39c0.09-1.57,0.19-3.9,0.22-6.9c0-0.75-0.01-1.55-0.01-2.38
						c-0.02-0.86-0.06-1.69,0.02-2.56c0.15-1.74,0.67-3.61,1.54-5.49c0.87-1.89,2.03-3.82,3.32-5.87c1.29-2.03,2.68-4.27,3.82-6.75
						c2.34-4.93,4.18-10.7,5.09-17.08c0.9-6.4,0.7-13.24,1.27-20.28c0.15-1.76,0.36-3.53,0.65-5.3l0.11-0.66l0.15-0.58
						c0.08-0.38,0.27-0.81,0.41-1.22c0.32-0.83,0.67-1.67,1.05-2.52c1.5-3.38,3.26-6.78,5.04-10.24c1.81-3.46,3.65-6.99,5.52-10.57
						c0.47-0.89,0.92-1.87,1.36-2.68c0.47-0.85,0.99-1.72,1.52-2.59c1.06-1.75,2.16-3.53,3.15-5.41c0.99-1.88,1.92-3.85,2.52-6.04
						c0.29-1.1,0.49-2.25,0.48-3.47c-0.01-1.21-0.26-2.5-0.87-3.66c-0.61-1.16-1.54-2.12-2.56-2.8c-1.01-0.67-2.14-1.21-3.41-1.49
						c-1.28-0.27-2.68-0.13-3.89,0.34c-1.22,0.47-2.25,1.21-3.13,2.02c-1.76,1.64-3,3.59-4.14,5.5c-1.11,1.89-2.2,3.79-3.29,5.7
						c-2.17,3.82-4.32,7.65-6.58,11.42c-2.38,3.8-4.25,7.89-6.72,11.33c-0.33,0.46-0.58,0.81-0.87,1.06
						c-0.28,0.26-0.57,0.4-0.74,0.43c-0.09,0.01-0.15,0.02-0.24-0.01c-0.06-0.01-0.25-0.09-0.33-0.15c-0.09-0.06-0.1-0.08-0.12-0.11
						c-0.02-0.03-0.06-0.12-0.08-0.28c-0.11-0.67,0.08-1.87,0.2-2.96l0.39-3.31c0.53-4.39,1.02-8.85,1.58-13.16
						c0.61-4.33,1.43-8.63,2.31-12.92c0.87-4.31,1.81-8.52,2.56-12.89c0.35-2.21,0.54-4.49,0.29-6.84
						c-0.17-1.17-0.39-2.37-0.91-3.52c-0.53-1.13-1.23-2.26-2.25-3.08c-0.98-0.83-2.13-1.45-3.3-1.78c-1.14-0.4-2.4-0.54-3.68-0.47
						c-1.29,0.08-2.59,0.58-3.63,1.3c-1.05,0.73-1.9,1.64-2.55,2.61c-1.3,1.94-2.1,4.01-2.71,6.05c-0.61,2.05-1.04,4.09-1.41,6.11
						c-0.72,4.04-1.13,8.03-1.68,11.85c-0.14,0.95-0.28,1.89-0.47,2.79c-0.09,0.47-0.19,0.86-0.3,1.35l-0.34,1.43
						c-0.43,1.9-0.81,3.76-1.18,5.6c-0.74,3.68-1.43,7.28-2.23,10.72c-0.4,1.69-0.83,3.44-1.4,4.81c-0.3,0.67-0.7,1.31-1.13,1.79
						c-0.21,0.23-0.44,0.41-0.57,0.48c-0.09,0.05-0.03,0.01-0.05,0.02c0.06,0.02-0.06-0.03-0.1-0.06c-0.06-0.05-0.13-0.09-0.2-0.16
						c-0.14-0.12-0.28-0.29-0.42-0.47c-0.27-0.37-0.51-0.8-0.69-1.26c-0.18-0.46-0.31-0.94-0.38-1.41c-0.07-0.59-0.13-1.17-0.2-1.76
						c-0.26-2.35-0.52-4.64-0.77-6.87c-0.5-4.46-0.98-8.68-1.43-12.62c-0.42-3.94-0.93-7.61-1.14-10.95
						C242.85,189.68,242.68,186.57,242.4,183.8z"/>
				</g>
			</g>
		</g>
	</g>
</g>
</svg>
