<?xml version="1.0" encoding="utf-8"?>
<!-- Generator: Adobe Illustrator 26.0.1, SVG Export Plug-In . SVG Version: 6.00 Build 0)  -->
<svg version="1.1" id="Layer_1" xmlns="http://www.w3.org/2000/svg" xmlns:xlink="http://www.w3.org/1999/xlink" x="0px" y="0px"
	 viewBox="0 0 480 480" style="enable-background:new 0 0 480 480;" xml:space="preserve">
<style type="text/css">
	.st0{fill:#93D7E4;}
	.st1{clip-path:url(#SVGID_00000101085785702915158970000000605278747752386746_);}
	.st2{fill:#E4B893;}
	.st3{fill:none;}
	.st4{fill:#3F3B3C;}
</style>
<g>
	
		<ellipse transform="matrix(0.2361 -0.9717 0.9717 0.2361 -49.8862 416.539)" class="st0" cx="240" cy="240" rx="63.34" ry="63.34"/>
	<g>
		<defs>
			
				<ellipse id="SVGID_1_" transform="matrix(0.2361 -0.9717 0.9717 0.2361 -49.8862 416.539)" cx="240" cy="240" rx="63.34" ry="63.34"/>
		</defs>
		<clipPath id="SVGID_00000128458086680735237940000001520806115224547973_">
			<use xlink:href="#SVGID_1_"  style="overflow:visible;"/>
		</clipPath>
		<g style="clip-path:url(#SVGID_00000128458086680735237940000001520806115224547973_);">
			<g>
				<path class="st2" d="M303.6,224.97c-3.89,0.17-9.81,0.11-9.81,0.11c-2.68-0.36-5.5-0.6-7.97-1.79c-2.08-1-3.7-3.18-5.31-4.82
					c-0.12-0.12-0.23-0.23-0.35-0.35c-1.03-5-2.64-7.64-3.9-9.49c-5.51-8.04-18.06-12.66-27.78-10.93c-2.24,0.4-4.74,1.01-7,2.34
					c-0.06,0-0.11-0.01-0.17-0.01c-5.73-0.22-11.97-0.38-17.42,1.4c-4.98,1.62-9.69,3.59-12.91,7.9c-1.77,2.38-3.58,7.29-2.85,10.38
					c0.38,1.61,1.18,3.06,2.24,4.3c-2.2,1.71-3.97,4.05-4.66,6.69c-1.82,6.96,0,12.92,5.14,16.34c0.83,0.55,1.68,1.02,2.54,1.46
					c-1.6,1.47-2.93,3.22-3.27,5.19c-0.63,3.7,0.56,8.51,2.69,11.62c1.66,2.42,4.35,3.72,7.21,4.24c0.16,2.39,0.68,4.79,2.22,6.67
					c3.11,3.81,8.27,4.54,12.89,3.91c1.65-0.23,3.56-0.77,5.38-1.63c4.54-0.17,9.91-1.48,13.16-2.43c2.83-0.83,7.79-3.75,10.32-5.27
					c4.63-2.8,7.32-6.09,11.27-10.08c3.96-3.98,8.87-6.73,14.33-8.02c2.35-0.55,4.78-0.61,7.2-0.65c2.27-0.04,4.54-0.06,6.8-0.08"/>
				<g>
					<path class="st3" d="M303.6,224.97c-3.89,0.17-9.81,0.11-9.81,0.11c-2.68-0.36-5.5-0.6-7.97-1.79c-2.08-1-3.7-3.18-5.31-4.82
						c-0.12-0.12-0.23-0.23-0.35-0.35c-1.03-5-2.64-7.64-3.9-9.49c-5.51-8.04-18.06-12.66-27.78-10.93c-2.24,0.4-4.74,1.01-7,2.34
						c-0.06,0-0.11-0.01-0.17-0.01c-5.73-0.22-11.97-0.38-17.42,1.4c-4.98,1.62-9.69,3.59-12.91,7.9
						c-1.77,2.38-3.58,7.29-2.85,10.38c0.38,1.61,1.18,3.06,2.24,4.3c-2.2,1.71-3.97,4.05-4.66,6.69c-1.82,6.96,0,12.92,5.14,16.34
						c0.83,0.55,1.68,1.02,2.54,1.46c-1.6,1.47-2.93,3.22-3.27,5.19c-0.63,3.7,0.56,8.51,2.69,11.62c1.66,2.42,4.35,3.72,7.21,4.24
						c0.16,2.39,0.68,4.79,2.22,6.67c3.11,3.81,8.27,4.54,12.89,3.91c1.65-0.23,3.56-0.77,5.38-1.63c4.54-0.17,9.91-1.48,13.16-2.43
						c2.83-0.83,7.79-3.75,10.32-5.27c4.63-2.8,7.32-6.09,11.27-10.08c3.96-3.98,8.87-6.73,14.33-8.02c2.35-0.55,4.78-0.61,7.2-0.65
						c2.27-0.04,4.54-0.06,6.8-0.08"/>
					<g>
						<path class="st4" d="M206.55,237.43c-0.19-1.65-0.1-3.73,0.49-6.07c0.25-1.12,0.73-2.18,1.45-3.26
							c0.36-0.53,0.77-1.05,1.24-1.54c0.11-0.13,0.24-0.25,0.36-0.37l0.19-0.18l0.33-0.3c0.61-0.5,1.23-1,1.85-1.5
							c-0.52-0.64-1.12-1.31-1.59-1.99l-0.19-0.28l-0.14-0.23c-0.09-0.16-0.18-0.32-0.27-0.48c-0.33-0.64-0.61-1.38-0.73-2.07
							c-0.24-1.33,0.04-3.07,0.57-4.72c0.55-1.66,1.31-3.35,2.42-4.7c1.14-1.43,2.59-2.65,4.24-3.67c1.67-1.01,3.53-1.84,5.5-2.55
							c0.98-0.35,2.02-0.71,2.99-0.99c0.99-0.27,2.01-0.5,3.05-0.67c2.09-0.34,4.24-0.48,6.44-0.52c1.1-0.02,2.2-0.01,3.31,0.01
							l1.67,0.04l0.84,0.03l0.42,0.01l0.82,0.04l0.68-0.38l0.39-0.21c0.23-0.12,0.47-0.23,0.71-0.34c0.48-0.22,0.98-0.41,1.49-0.58
							c1.02-0.34,2.08-0.6,3.18-0.81c2.15-0.4,4.32-0.52,6.5-0.36c4.36,0.29,8.59,1.62,12.3,3.55c3.68,2,6.85,4.64,8.86,7.9
							c1.04,1.6,1.8,3.3,2.37,5.03c0.29,0.86,0.52,1.73,0.73,2.6l0.12,0.53c0.03,0.09,0.03,0.2,0.08,0.27l0.19,0.19l0.6,0.6
							c0.3,0.32,0.61,0.63,0.91,0.95c1.21,1.27,2.44,2.6,4.04,3.48c1.6,0.82,3.16,1.18,4.62,1.43c1.46,0.24,2.8,0.34,4.04,0.47
							c0.26,0.03,0.38,0,0.54,0l0.45-0.02c0.3-0.01,0.59-0.03,0.88-0.04c0.57-0.03,1.12-0.05,1.63-0.08
							c4.13-0.21,6.49-0.44,6.47-0.68c-0.01-0.22-2.38-0.38-6.49-0.5c-1-0.03-2.11-0.06-3.32-0.09c-1.23-0.2-2.55-0.38-3.91-0.67
							c-1.35-0.29-2.78-0.71-4.02-1.42c-1.21-0.73-2.3-1.94-3.46-3.25c-0.3-0.33-0.6-0.67-0.91-1.01l-0.34-0.37
							c-0.09-0.09-0.04-0.09-0.09-0.26c-0.19-0.92-0.42-1.86-0.7-2.8c-0.56-1.88-1.37-3.8-2.48-5.6c-2.15-3.66-5.65-6.69-9.6-8.9
							c-4-2.15-8.53-3.65-13.31-4.02c-2.38-0.2-4.84-0.09-7.23,0.34c-1.17,0.22-2.36,0.49-3.54,0.88c-0.59,0.19-1.17,0.41-1.75,0.66
							c-0.29,0.12-0.57,0.26-0.86,0.4l-0.46,0.24l-3.01-0.11c-1.14-0.03-2.28-0.04-3.42-0.03c-2.29,0.03-4.58,0.17-6.86,0.52
							c-1.14,0.19-2.27,0.43-3.38,0.73c-1.13,0.33-2.15,0.67-3.2,1.05c-2.08,0.74-4.14,1.64-6.05,2.8c-1.9,1.17-3.64,2.62-5,4.33
							c-1.44,1.76-2.3,3.72-2.94,5.66c-0.6,1.96-1.02,3.97-0.65,6.17c0.2,1.07,0.56,1.98,1.01,2.87c0.11,0.22,0.23,0.43,0.36,0.64
							l0.19,0.31l0.16,0.25l0,0l0,0l-0.32,0.31c-0.15,0.15-0.3,0.3-0.44,0.45c-0.57,0.61-1.08,1.25-1.53,1.92
							c-0.89,1.32-1.53,2.81-1.84,4.19c-0.66,2.65-0.76,5.1-0.51,7.1c0.2,1.89,0.81,4.23,2.31,6.5c0.74,1.13,1.7,2.22,2.88,3.16
							c0.59,0.46,1.22,0.92,1.87,1.27l0.25,0.14c0.01,0,0,0,0,0l-0.01,0l-0.3,0.36c-0.18,0.22-0.35,0.44-0.51,0.68
							c-0.65,0.94-1.23,2.05-1.49,3.35c-0.45,2.4-0.22,4.78,0.37,7.16c0.3,1.18,0.71,2.36,1.25,3.51c0.54,1.15,1.19,2.29,2.16,3.35
							c0.95,1.04,2.12,1.86,3.36,2.48c0.62,0.31,1.27,0.56,1.93,0.77c0.16,0.05,0.33,0.1,0.49,0.15l0.35,0.1
							c0.05,0.01,0.05,0.01,0.05,0.01l0,0.01l0.06,0.48l0.09,0.54c0.13,0.72,0.3,1.45,0.55,2.17c0.48,1.43,1.36,2.89,2.46,3.97
							c2.21,2.25,5.3,3.43,8.28,3.72c1.5,0.16,3,0.15,4.48-0.02c1.49-0.15,2.99-0.5,4.4-0.99c0.35-0.12,0.7-0.26,1.05-0.4l0.52-0.22
							l0.29-0.13c-0.11-0.01,0.44-0.03,0.77-0.05c0.36-0.03,0.73-0.06,1.09-0.1c1.44-0.15,2.86-0.37,4.26-0.64
							c1.4-0.27,2.78-0.59,4.14-0.93c0.68-0.18,1.36-0.36,2.03-0.55l1.02-0.3c0.37-0.12,0.72-0.24,1.06-0.38
							c2.69-1.1,5.04-2.47,7.37-3.82c1.15-0.69,2.29-1.36,3.42-2.13c1.12-0.77,2.17-1.6,3.15-2.47c1.97-1.74,3.66-3.6,5.29-5.33
							c6.15-7.18,14.21-10.12,19.87-10.38c5.82-0.33,9.31-0.53,9.3-0.81c-0.01-0.27-3.45-0.52-9.35-0.56
							c-1.48,0.02-3.15,0.11-4.94,0.5c-1.75,0.39-3.62,0.94-5.51,1.75c-1.9,0.81-3.82,1.86-5.68,3.2c-1.88,1.31-3.64,3.01-5.3,4.71
							c-1.69,1.71-3.38,3.48-5.25,5.08c-0.93,0.8-1.92,1.55-2.96,2.24c-1.02,0.68-2.17,1.33-3.31,1.99
							c-2.28,1.29-4.65,2.61-7.04,3.55c-0.3,0.11-0.59,0.21-0.88,0.3l-0.96,0.27l-1.97,0.51c-1.32,0.32-2.65,0.61-3.99,0.86
							c-1.34,0.24-2.69,0.44-4.03,0.57l-2.33,0.18c-0.65,0.3-0.78,0.35-1.12,0.49c-0.3,0.12-0.61,0.23-0.91,0.34
							c-1.24,0.42-2.48,0.7-3.78,0.82c-1.3,0.14-2.6,0.14-3.86,0c-2.53-0.26-4.88-1.23-6.51-2.9c-0.83-0.85-1.38-1.77-1.77-2.88
							c-0.19-0.55-0.33-1.13-0.43-1.72l-0.07-0.45l-0.06-0.51l-0.16-1.99l-1.81-0.38c-0.36-0.08-0.4-0.1-0.55-0.14
							c-0.14-0.04-0.27-0.08-0.4-0.12c-0.53-0.17-1.04-0.37-1.52-0.6c-0.96-0.48-1.81-1.08-2.48-1.82
							c-0.65-0.72-1.21-1.65-1.66-2.61c-0.45-0.97-0.8-1.97-1.06-2.99c-0.51-2.01-0.67-4.1-0.34-5.84c0.15-0.77,0.52-1.54,1.01-2.24
							c0.12-0.18,0.25-0.35,0.39-0.52l0.21-0.25c0.09-0.1,0.3-0.35,0.46-0.5c0.68-0.71,1.47-1.41,2.16-2.08
							c-1.2-0.69-2.38-1.36-3.53-2.02c-0.61-0.32-1.1-0.68-1.58-1.05c-0.95-0.75-1.71-1.61-2.3-2.5
							C207.23,240.86,206.72,239,206.55,237.43z"/>
					</g>
				</g>
			</g>
			<g>
				<g>
					<g>
						<g>
							<path class="st4" d="M245.87,262.2c0.19-0.2,0.66-0.11,1.17,0.49c0.27,0.32,0.42,0.66,0.65,1.09
								c0.2,0.44,0.48,0.91,0.63,1.51c0.34,1.17,0.67,2.66,0.46,4.35c-0.04,0.85-0.32,1.71-0.59,2.59c-0.2,0.42-0.4,0.84-0.6,1.27
								c-0.23,0.41-0.52,0.8-0.79,1.2c-1.11,1.59-3.67,3.76-7.13,5c-3.44,1.29-7.71,1.79-11.62,0.88c-0.97-0.24-1.91-0.59-2.77-1.03
								c-0.86-0.46-1.62-1.02-2.29-1.63c-0.65-0.63-1.2-1.28-1.64-1.97c-0.43-0.69-0.72-1.39-0.93-2.04
								c-0.41-1.31-0.5-2.41-0.52-3.17c-0.02-0.76,0.05-1.18,0.12-1.19c0.08-0.01,0.18,0.41,0.34,1.13c0.17,0.72,0.4,1.75,0.9,2.9
								c0.91,2.32,3.6,4.83,7.14,5.39c1.74,0.34,3.62,0.29,5.44,0.07c1.82-0.23,3.52-0.7,5.06-1.34c3.09-1.24,5.18-3.14,6.05-4.39
								c0.95-1.23,1.44-2.62,1.59-3.94c0.21-1.31,0.02-2.55-0.14-3.59c-0.05-0.53-0.24-0.99-0.31-1.42
								c-0.09-0.41-0.14-0.83-0.19-1.08C245.78,262.76,245.68,262.39,245.87,262.2z"/>
						</g>
					</g>
				</g>
				<g>
					<g>
						<g>
							<path class="st4" d="M244.84,246.73c0.07-0.12,0.27-0.16,0.57-0.03c0.3,0.13,0.65,0.45,0.96,0.91
								c0.55,0.87,1.2,2.19,1.62,3.98c0.43,1.77,0.66,3.98,0.26,6.43c-0.21,1.22-0.59,2.5-1.24,3.73c-0.16,0.31-0.34,0.62-0.55,0.91
								c-0.19,0.3-0.42,0.59-0.67,0.87c-0.47,0.57-1.09,1.07-1.67,1.47c-1.18,0.83-2.89,1.69-4.97,2.41
								c-2.08,0.7-4.52,1.3-7.17,1.74c-1.32,0.23-2.7,0.42-4.1,0.59c-1.41,0.16-2.83,0.33-4.34,0.4c-1.5,0.05-3.03,0-4.55-0.28
								c-1.51-0.29-3.04-0.78-4.34-1.67c-1.31-0.85-2.38-2.13-3.02-3.39c-0.7-1.27-1.18-2.57-1.53-3.85
								c-0.7-2.55-0.81-5.02-0.45-7.06c0.17-1.04,0.59-1.94,1.03-2.63c0.44-0.7,0.91-1.23,1.32-1.64c0.82-0.81,1.36-1.16,1.41-1.11
								c0.06,0.06-0.38,0.53-1.05,1.42c-0.64,0.88-1.62,2.23-1.8,4.1c-0.2,1.89,0.03,4.2,0.8,6.56c0.38,1.18,0.89,2.37,1.57,3.48
								c0.66,1.15,1.51,2.06,2.63,2.75c2.23,1.36,5.15,1.59,7.91,1.4c2.78-0.25,5.62-0.68,8.16-1.17c2.56-0.48,4.88-1.11,6.8-1.78
								c1.92-0.69,3.42-1.47,4.39-2.16c1.92-1.26,2.83-3.42,3.23-5.47c0.38-2.07,0.26-4.03,0.02-5.64
								c-0.24-1.62-0.64-2.91-0.85-3.82C244.98,247.34,244.71,246.98,244.84,246.73z"/>
						</g>
					</g>
				</g>
				<g>
					<g>
						<g>
							<path class="st4" d="M247.47,241.83c0.27,0.07,0.38,0.64,0.16,1.62c-0.22,0.96-0.79,2.36-2.01,3.74
								c-0.31,0.34-0.64,0.68-1.03,1.01c-0.41,0.34-0.85,0.64-1.32,0.91c-0.94,0.53-1.98,0.96-3.08,1.29
								c-2.21,0.68-4.67,1.09-7.24,1.34c-1.29,0.13-3.03,0.24-5.1,0.28c-1.04,0.02-2.13,0.02-3.33-0.01
								c-1.21-0.04-2.48-0.15-3.78-0.37c-2.61-0.43-5.35-1.29-7.9-2.67c-1.27-0.69-2.5-1.46-3.65-2.42
								c-1.14-0.96-2.13-2.1-2.89-3.36c-1.56-2.52-2.04-5.45-1.89-7.98c0.05-1.28,0.27-2.48,0.53-3.59c0.25-1.1,0.61-2.16,1.08-3.03
								c0.94-1.76,2.08-2.92,2.92-3.63c0.85-0.72,1.4-1,1.44-0.95c0.06,0.07-0.4,0.48-1.11,1.28c-0.71,0.8-1.69,2.01-2.43,3.69
								c-0.38,0.84-0.63,1.78-0.81,2.86c-0.18,1.06-0.33,2.2-0.32,3.39c-0.02,2.36,0.54,4.93,1.98,7.08
								c1.4,2.18,3.63,3.75,6.04,4.94c2.39,1.19,4.94,1.92,7.35,2.26c2.41,0.36,4.69,0.27,6.72,0.22c2.01-0.07,3.7-0.19,4.93-0.31
								c4.9-0.49,9.44-1.52,11.46-3.62c1.1-1.03,1.76-2.1,2.24-2.85C246.89,242.2,247.2,241.76,247.47,241.83z"/>
						</g>
					</g>
				</g>
				<g>
					<g>
						<g>
							<path class="st4" d="M250.89,202.46c-0.3,0.53-3.58-1.41-9.63-1.43c-3.08-0.03-6.74-0.16-10.7,0.23
								c-1.98,0.2-4.03,0.54-6.05,1.18c-2.07,0.67-4.22,1.42-6.23,2.43c-1.99,1-4.66,2.65-6.67,5.52c-0.94,1.43-1.74,3.26-2.22,5.21
								c-0.23,0.97-0.39,2-0.33,2.97c0.05,0.94,0.36,1.9,0.9,2.77c0.54,0.87,1.31,1.68,2.18,2.45c0.89,0.79,1.79,1.47,2.82,2.06
								c2.04,1.2,4.41,1.98,6.86,2.5c2.46,0.52,5.02,0.78,7.59,0.93c2.58,0.14,5.16,0.23,7.66,0.09c2.49-0.16,4.94-0.56,7.09-1.47
								c2.15-0.9,4.01-2.34,4.9-4.25c0.92-1.9,0.79-4.08,0.02-5.85c-0.37-0.9-0.9-1.7-1.48-2.41c-0.58-0.72-1.23-1.34-1.9-1.88
								c-2.69-2.19-5.6-2.84-7.54-3.21c-1.97-0.35-3.11-0.4-3.11-0.49c0-0.06,1.14-0.17,3.17,0.03c1.01,0.11,2.25,0.31,3.64,0.73
								c1.38,0.44,2.92,1.13,4.39,2.23c0.74,0.54,1.46,1.19,2.11,1.94c0.66,0.75,1.27,1.62,1.73,2.61c0.94,1.96,1.19,4.55,0.15,6.84
								c-1.01,2.32-3.16,4.02-5.49,5.06c-2.36,1.06-4.96,1.54-7.57,1.76c-2.61,0.21-5.24,0.16-7.86,0.06
								c-2.63-0.11-5.28-0.32-7.89-0.83c-2.6-0.51-5.18-1.3-7.49-2.61c-1.15-0.63-2.25-1.44-3.19-2.26
								c-0.96-0.83-1.9-1.75-2.62-2.89c-0.72-1.13-1.18-2.44-1.26-3.76c-0.09-1.3,0.1-2.49,0.35-3.61c0.53-2.25,1.36-4.23,2.49-5.97
								c2.35-3.4,5.35-5.23,7.52-6.33c2.2-1.11,4.42-1.88,6.58-2.57c2.23-0.69,4.43-1.04,6.52-1.23c4.18-0.36,7.9-0.14,10.99,0.04
								c3.18,0.19,5.74,0.9,7.35,1.69C250.31,201.51,251.02,202.25,250.89,202.46z"/>
						</g>
					</g>
				</g>
				<g>
					<g>
						<g>
							<path class="st4" d="M235.07,209.81c-0.03,0.87-1.37,0.82-3.04,0.92c-0.84,0.04-2.87,0.12-4.71,0.26
								c-1.84,0.12-3.49,0.24-3.54,0c-0.05-0.23,1.52-0.78,3.35-1.22c1.83-0.45,3.92-0.74,4.8-0.78
								C233.67,208.89,235.1,209,235.07,209.81z"/>
						</g>
					</g>
				</g>
				<g>
					<g>
						<g>
							<path class="st4" d="M227.07,210.4c-0.64,0.59-0.87,0.34-1.18,0.07c-0.16-0.14-0.48-0.53-0.8-0.9
								c-0.31-0.38-0.62-0.72-0.55-0.95c0.07-0.24,0.62-0.27,1.18-0.11c0.56,0.15,1.12,0.47,1.32,0.65
								C227.42,209.5,227.66,209.86,227.07,210.4z"/>
						</g>
					</g>
				</g>
				<g>
					<path class="st2" d="M281.06,225.21c-0.61-9.91-3.04-14-4.8-16.58c-5.51-8.04-18.06-12.66-27.78-10.93
						c-6.68,1.19-15.67,4.27-13.55,22.47c0.54,4.68-0.45,10.1-0.32,14.81c0.07,2.66,1.44,6.63,5.42,7.92
						c3.7,1.2,10.16-1.4,12.05-5.56c2.58-5.7,5.27-17.45,4.3-22.59"/>
					<g>
						<g>
							<path class="st4" d="M236.09,212.2c0.02-0.41,0.08-0.85,0.18-1.32c0.09-0.47,0.18-0.98,0.28-1.52
								c0.15-0.52,0.31-1.07,0.48-1.65c0.2-0.56,0.47-1.13,0.71-1.73c0.64-1.11,1.34-2.34,2.46-3.29c1.08-0.99,2.42-1.82,3.98-2.43
								c1.55-0.61,3.32-1.04,5.14-1.3c1.79-0.3,3.68-0.32,5.58-0.17c1.9,0.13,3.82,0.48,5.69,1c1.88,0.49,3.7,1.18,5.42,2.01
								c1.73,0.81,3.35,1.8,4.8,2.9c1.48,1.08,2.75,2.33,3.82,3.63c2.19,2.64,3.48,5.52,4.25,8.11c0.78,2.59,1.18,4.81,1.48,6.36
								c0.3,1.55,0.5,2.42,0.7,2.41c0.17-0.01,0.28-0.91,0.26-2.51c-0.03-1.6-0.19-3.91-0.81-6.7c-0.61-2.76-1.87-6.06-4.16-9.03
								c-1.14-1.5-2.51-2.92-4.09-4.15c-1.56-1.25-3.29-2.37-5.15-3.28c-1.85-0.94-3.8-1.72-5.83-2.28
								c-2.02-0.58-4.09-0.99-6.18-1.16c-2.08-0.18-4.18-0.17-6.2,0.15c-2,0.29-3.92,0.73-5.75,1.45c-1.82,0.71-3.49,1.73-4.84,2.97
								c-1.39,1.22-2.28,2.73-3.04,4.1c-0.29,0.72-0.61,1.4-0.84,2.07c-0.19,0.67-0.37,1.32-0.54,1.92
								c-0.12,0.61-0.2,1.18-0.29,1.71c-0.1,0.53-0.16,1.02-0.18,1.47c-0.06,0.89-0.2,1.96-0.16,3.17c0.01,0.6,0.01,1.25,0.02,1.92
								c0.05,0.67,0.11,1.37,0.17,2.11c0.06,0.7,0.12,1.44,0.18,2.19c0.05,0.73,0.07,1.49,0.06,2.29c-0.01,1.59-0.12,3.3-0.24,5.11
								c-0.12,1.81-0.26,3.72-0.23,5.73c-0.02,2.12,0.57,4.42,1.88,6.33c1.34,1.93,3.48,3.35,5.93,3.62
								c2.38,0.22,4.56-0.4,6.52-1.33c0.98-0.47,1.9-1.05,2.74-1.74c0.83-0.69,1.6-1.48,2.19-2.42c0.61-0.98,0.94-1.9,1.27-2.79
								c0.33-0.9,0.62-1.78,0.88-2.66c1.05-3.49,1.69-6.74,2.07-9.53c0.37-2.79,0.45-5.12,0.3-6.74c-0.15-1.62-0.51-2.5-0.66-2.46
								c-0.2,0.04-0.17,0.92-0.3,2.46c-0.13,1.55-0.44,3.77-0.99,6.45c-0.56,2.68-1.36,5.82-2.5,9.14c-0.29,0.83-0.59,1.67-0.93,2.5
								c-0.34,0.84-0.7,1.7-1.12,2.32c-0.91,1.33-2.38,2.45-4.02,3.19c-1.63,0.75-3.5,1.19-5.15,1c-0.78-0.09-1.56-0.39-2.26-0.83
								c-0.69-0.44-1.28-1.02-1.75-1.71c-0.93-1.4-1.4-3.1-1.37-4.84c-0.01-1.85,0.12-3.71,0.24-5.52c0.12-1.81,0.24-3.58,0.25-5.28
								c0-0.85-0.02-1.69-0.07-2.5c-0.07-0.78-0.14-1.53-0.2-2.26c-0.06-0.69-0.12-1.36-0.17-1.99c-0.01-0.63-0.02-1.23-0.03-1.79
								C235.93,213.98,236.05,213.02,236.09,212.2z"/>
						</g>
					</g>
				</g>
				<g>
					<g>
						<g>
							<path class="st4" d="M255.97,223.18c-0.22-0.85,0.58-1.04,1.53-1.42c0.47-0.18,1.65-0.58,2.61-1.09
								c0.48-0.25,0.89-0.53,1.16-0.77c0.27-0.23,0.41-0.44,0.54-0.43c0.11,0.01,0.2,0.33,0.03,0.79c-0.16,0.45-0.54,0.96-1,1.4
								c-0.93,0.89-2.17,1.52-2.7,1.72C257.09,223.8,256.17,223.96,255.97,223.18z"/>
						</g>
					</g>
				</g>
			</g>
		</g>
	</g>
</g>
</svg>
