<?xml version="1.0" encoding="utf-8"?>
<!-- Generator: Adobe Illustrator 26.0.1, SVG Export Plug-In . SVG Version: 6.00 Build 0)  -->
<svg version="1.1" id="Layer_1" xmlns="http://www.w3.org/2000/svg" xmlns:xlink="http://www.w3.org/1999/xlink" x="0px" y="0px"
	 viewBox="0 0 480 480" style="enable-background:new 0 0 480 480;" xml:space="preserve">
<style type="text/css">
	.st0{fill:#93D7E4;}
	.st1{clip-path:url(#SVGID_00000100342338035370867310000012890384384714798011_);}
	.st2{fill:#E4B893;}
	.st3{fill:#3F3B3C;}
</style>
<g>
	
		<ellipse transform="matrix(0.7071 -0.7071 0.7071 0.7071 -114.3621 245.9312)" class="st0" cx="239.68" cy="261.01" rx="63.34" ry="63.34"/>
	<g>
		<defs>
			<path id="SVGID_1_" d="M303.02,261.01c0,34.98-28.36,63.34-63.34,63.34s-63.34-28.36-63.34-63.34s29.39-107.96,64.31-105.97
				C293.32,158.04,303.02,226.03,303.02,261.01z"/>
		</defs>
		<clipPath id="SVGID_00000129893323310097829280000009816698159815899778_">
			<use xlink:href="#SVGID_1_"  style="overflow:visible;"/>
		</clipPath>
		<g style="clip-path:url(#SVGID_00000129893323310097829280000009816698159815899778_);">
			<g>
				<path class="st2" d="M282.79,316.78c-2.59-4.55-6.37-8.73-6.37-14.86c0.01-6.23,1.79-16.64,0.76-28.69
					c-1.03-12.05-4.47-22.45-6.97-28.45c-3.4-8.16-4.12-19.25-2.99-27.78c1.11-8.41,2.81-15.54,5.66-23.53
					c1.92-5.39,4.68-15.18-1.95-18.49c-5-2.5-12.17,2.04-16.23,10.29c-0.47,0.96-0.93,1.97-1.36,3.03
					c-5.15,12.25-9.32,38.79-9.86,38.78c-0.43,0.02-4.62-8.27-5.38-10.44c-3.19-9.14-4.55-18.35-6.61-27.74
					c-1.26-5.74-3.55-14.78-11.12-14.12c-11.5,1-10.33,16.17-5.83,34.5c3.29,13.41,6.77,17.92,10.66,25.9
					c-1.11-0.38-7-1.06-9.88-0.72c-6.56,0.78-11.42,4.12-13.44,7.66c-3.87,6.77-3.35,10.98,0.95,18.76c0.11,0.2,0.24,0.38,0.36,0.58
					c-2.99,3.3-5.18,6.26-4.55,12.09c0.69,6.4,5.13,10.76,10.24,13.87c5,13,14.4,21.47,22.4,25.47s15.43,2.89,18.43,6.39
					s3.5,7,4.5,8.5"/>
				<g>
					<g>
						<path class="st3" d="M232.39,200.37c0.68,3.33,1.53,7.44,2.88,12.14c0.34,1.17,0.71,2.38,1.12,3.62
							c0.1,0.31,0.21,0.62,0.31,0.94c0.12,0.35,0.26,0.69,0.39,1.01c0.27,0.64,0.55,1.26,0.85,1.89c0.59,1.25,1.21,2.51,1.87,3.8
							c0.18,0.35,0.36,0.7,0.55,1.05c0.33,0.62,0.68,1.27,1.04,1.87c0.36,0.58,0.73,1.25,1.1,1.49c0.37,0.23,0.66,0.21,0.96,0.38
							c0.05,0,0.11,0,0.17-0.01l0.06-0.01c-0.01-0.18,0.04-0.07,0.04-0.11l0.08-0.04l0.28-0.13l0.3-0.15
							c0.12-0.05,0.23-0.1,0.33-0.26c0.21-0.25,0.35-0.79,0.49-1.3c0.12-0.54,0.24-1.08,0.37-1.63c0.26-1.28,0.53-2.58,0.81-3.9
							c0.47-2.28,0.95-4.62,1.45-7.01c1.02-4.78,2.13-9.76,3.51-14.84c0.69-2.53,1.44-5.09,2.34-7.61c0.45-1.26,0.92-2.5,1.5-3.72
							c0.28-0.61,0.55-1.23,0.83-1.85c0.31-0.59,0.6-1.18,0.94-1.75c1.34-2.28,3.03-4.4,5.09-6.03c2.02-1.59,4.54-2.77,6.81-2.38
							c0.56,0.11,1.08,0.27,1.59,0.55l0.75,0.46l0.64,0.57c0.8,0.82,1.32,1.9,1.58,3.13c0.54,2.48,0.12,5.33-0.54,8.05
							c-0.34,1.37-0.77,2.74-1.24,4.1c-0.48,1.39-0.98,2.81-1.42,4.23c-0.9,2.84-1.7,5.72-2.36,8.62c-0.67,2.9-1.2,5.82-1.63,8.73
							c-0.45,2.89-0.76,5.88-0.81,8.81c-0.13,5.87,0.48,11.66,1.93,17.16c0.39,1.37,0.81,2.72,1.33,4.04
							c0.26,0.67,0.52,1.31,0.77,1.91c0.24,0.62,0.49,1.24,0.73,1.86c0.94,2.48,1.77,4.96,2.49,7.43c1.44,4.94,2.46,9.8,3.07,14.48
							c1.27,9.36,0.71,17.9,0.24,25.07c-0.11,1.8-0.22,3.51-0.25,5.15c-0.05,1.62,0.01,3.26,0.35,4.71
							c0.65,2.92,1.97,5.13,3.05,6.82c1.11,1.7,2.03,2.94,2.64,3.8c0.62,0.85,0.95,1.3,1.03,1.25c0.06-0.04-0.14-0.57-0.63-1.51
							c-0.49-0.94-1.31-2.28-2.28-4.02c-0.95-1.74-2.09-3.91-2.57-6.62c-0.25-1.35-0.25-2.79-0.15-4.41c0.09-1.6,0.24-3.3,0.41-5.09
							c0.67-7.14,1.43-15.84,0.27-25.46c-0.55-4.8-1.53-9.79-2.94-14.85c-0.7-2.54-1.53-5.09-2.47-7.64
							c-0.45-1.26-1.02-2.6-1.47-3.8c-0.47-1.23-0.85-2.51-1.21-3.8c-1.33-5.21-1.88-10.81-1.7-16.44c0.07-2.83,0.38-5.61,0.84-8.47
							c0.44-2.85,0.98-5.69,1.65-8.51c0.66-2.82,1.45-5.62,2.34-8.39c0.44-1.39,0.92-2.75,1.42-4.14c0.5-1.42,0.96-2.86,1.33-4.34
							c0.71-2.95,1.26-6.08,0.58-9.36c-0.34-1.62-1.1-3.27-2.34-4.54c-0.33-0.3-0.65-0.6-0.99-0.87l-1.1-0.68
							c-0.36-0.23-0.81-0.36-1.21-0.53c-0.42-0.16-0.86-0.22-1.29-0.32c-1.75-0.29-3.48,0.02-4.99,0.6
							c-1.52,0.58-2.87,1.42-4.09,2.37c-2.43,1.92-4.31,4.31-5.82,6.84c-0.38,0.63-0.71,1.29-1.05,1.94
							c-0.29,0.65-0.59,1.3-0.88,1.95c-0.6,1.29-1.11,2.61-1.58,3.93c-0.94,2.63-1.7,5.25-2.41,7.83c-1.4,5.16-2.53,10.19-3.55,15
							c-0.71,3.47-1.39,6.78-2.03,9.89l0,0c-0.15-0.3-0.31-0.59-0.46-0.88c-0.65-1.25-1.26-2.49-1.83-3.7
							c-0.28-0.6-0.56-1.2-0.81-1.78c-0.12-0.29-0.24-0.56-0.33-0.83c-0.1-0.3-0.2-0.6-0.3-0.9c-0.41-1.19-0.77-2.37-1.1-3.5
							c-1.32-4.56-2.18-8.61-2.87-11.91c-0.44-2.18-0.94-4.69-1.5-7.5c-0.6-2.8-1.15-5.93-2.27-9.35c-0.58-1.69-1.3-3.46-2.44-5.16
							c-1.1-1.69-2.83-3.35-5.12-4.08c-1.13-0.39-2.33-0.46-3.5-0.41c-1.13,0.1-2.27,0.3-3.4,0.72c-1.12,0.43-2.21,1.09-3.13,1.95
							c-0.92,0.85-1.65,1.89-2.21,2.99c-1.08,2.21-1.53,4.59-1.71,6.95c-0.18,2.36-0.09,4.74,0.12,7.11
							c0.44,4.76,1.39,9.54,2.51,14.38c1.13,4.82,2.48,9.8,4.5,14.63c1,2.41,2.16,4.78,3.37,7.09c0.6,1.15,1.21,2.3,1.82,3.45
							l0.35,0.66c0.02,0.04,0.04,0.05,0.03,0.06l-0.65-0.07c-1.08-0.11-2.17-0.2-3.26-0.24c-1.1-0.04-2.2-0.06-3.39,0.06
							c-1.14,0.14-2.24,0.32-3.34,0.62c-2.19,0.56-4.32,1.44-6.25,2.68c-1.93,1.23-3.69,2.83-4.94,4.9
							c-1.13,1.93-2.07,3.98-2.58,6.27c-0.5,2.29-0.34,4.74,0.31,6.9c0.61,2.18,1.57,4.14,2.56,6.02l0.38,0.7l0.06,0.11l0.03,0.04
							c0.03,0.03,0.02,0.05-0.01,0.07l-0.15,0.18c-0.7,0.81-1.38,1.67-1.98,2.61c-1.23,1.87-1.98,4.14-2.11,6.35
							c-0.07,1.11-0.01,2.19,0.1,3.25c0.15,1.07,0.34,2.15,0.7,3.17c0.64,2.07,1.76,3.93,3.05,5.55c1.32,1.61,2.84,2.99,4.44,4.16
							c0.4,0.29,0.8,0.58,1.21,0.85l0.61,0.4l0.49,0.3c0.05,0.01,0.08,0.08,0.09,0.1l0.26,0.63l0.56,1.32
							c0.41,0.86,0.81,1.71,1.24,2.55c0.46,0.82,0.88,1.65,1.36,2.44c1.89,3.18,4.06,6.05,6.4,8.57c2.33,2.53,4.86,4.7,7.43,6.51
							c2.58,1.81,5.2,3.3,7.87,4.32c5.3,2.11,10.38,2.19,13.92,3.55c0.86,0.36,1.63,0.79,2.17,1.38c0.58,0.62,1.08,1.27,1.51,1.89
							c0.85,1.26,1.42,2.44,1.87,3.41c0.44,0.98,0.77,1.75,1.06,2.24c0.29,0.5,0.51,0.71,0.55,0.68c0.06-0.04-0.06-0.3-0.23-0.82
							c-0.17-0.53-0.42-1.32-0.75-2.34c-0.35-1.03-0.85-2.3-1.67-3.68c-0.42-0.69-0.9-1.4-1.5-2.12c-0.64-0.77-1.54-1.34-2.5-1.78
							c-1.95-0.88-4.16-1.27-6.49-1.81c-2.33-0.52-4.81-1.14-7.28-2.19c-2.47-1.02-4.96-2.5-7.4-4.28
							c-2.43-1.79-4.82-3.91-7.01-6.37c-2.2-2.46-4.24-5.23-6-8.29c-0.45-0.76-0.84-1.56-1.27-2.35c-0.4-0.8-0.77-1.63-1.15-2.45
							l-0.52-1.27l-0.27-0.66l-0.25-0.6l-0.06-0.15c-0.03-0.04-0.09-0.06-0.13-0.09l-0.27-0.17l-0.73-0.47
							c-0.19-0.12-0.38-0.26-0.57-0.38c-0.38-0.25-0.75-0.53-1.12-0.8c-1.47-1.1-2.81-2.36-3.96-3.78
							c-1.11-1.44-2.05-3.03-2.58-4.78c-0.3-0.86-0.44-1.77-0.57-2.69c-0.09-0.93-0.13-1.87-0.06-2.79
							c0.14-1.84,0.71-3.55,1.75-5.12c0.51-0.79,1.12-1.55,1.77-2.3l0.88-0.99l0.5-0.55c0.15-0.09,0-0.2-0.05-0.3l-0.19-0.32
							l-0.38-0.63c-0.06-0.11-0.14-0.21-0.19-0.32l-0.14-0.27l-0.36-0.67c-0.93-1.8-1.81-3.64-2.31-5.51
							c-0.54-1.87-0.64-3.75-0.23-5.6c0.42-1.84,1.26-3.69,2.29-5.42c0.95-1.57,2.41-2.92,4.07-3.96c1.65-1.05,3.51-1.82,5.44-2.3
							c0.96-0.26,1.96-0.41,2.93-0.53c0.92-0.09,1.96-0.08,2.97-0.03c1.02,0.05,2.06,0.13,3.08,0.24l1.03,0.13
							c0.5,0.06,1.02,0.15,1.57,0.26c1.09,0.24,2.43,0.65,3.65,0.97l-1.67-3.38l-1.43-2.83c-0.6-1.15-1.21-2.3-1.81-3.45
							c-1.19-2.28-2.29-4.55-3.24-6.87c-1.92-4.63-3.21-9.42-4.33-14.18c-1.1-4.76-2.02-9.44-2.43-13.97
							c-0.2-2.26-0.29-4.49-0.12-6.62c0.15-2.12,0.57-4.16,1.4-5.84c0.83-1.68,2.13-2.88,3.74-3.49c0.8-0.3,1.69-0.46,2.56-0.54
							c0.84-0.03,1.65,0.01,2.37,0.27c1.47,0.46,2.68,1.54,3.58,2.92c0.91,1.36,1.57,2.91,2.09,4.45c1.03,3.09,1.6,6.21,2.21,8.99
							C231.43,195.68,231.95,198.19,232.39,200.37z"/>
					</g>
				</g>
			</g>
			<g>
				<g>
					<g>
						<g>
							<path class="st3" d="M238.35,270.49c0.25,0.1,0.22,0.86-0.41,2.04c-0.62,1.16-1.98,2.73-4.18,3.73
								c-2.18,1.02-5.01,1.51-8.09,1.26c-3.07-0.25-6.35-1.22-9.45-2.81c-3.09-1.57-8.18-4.93-12.3-10.59
								c-1.01-1.41-1.95-3.01-2.76-4.61c-0.82-1.62-1.62-3.33-2.18-5.19c-0.54-1.86-0.82-3.92-0.47-5.9
								c0.32-1.98,1.08-3.8,1.97-5.45c0.23-0.41,0.46-0.81,0.69-1.22c0.25-0.41,0.51-0.82,0.81-1.2c0.58-0.75,1.22-1.45,1.91-2.05
								c1.37-1.23,2.9-2.15,4.44-2.86c3.09-1.4,6.21-1.82,8.79-1.71c2.57,0.13,4.62,0.52,6.04,0.82c1.41,0.31,2.19,0.56,2.17,0.64
								c-0.02,0.08-0.82-0.02-2.25-0.17c-1.43-0.15-3.49-0.39-5.98-0.37c-2.46,0.03-5.4,0.57-8.22,1.98
								c-2.82,1.41-5.51,3.67-6.94,6.9c-0.79,1.59-1.42,3.26-1.65,4.96c-0.25,1.7,0.02,3.42,0.54,5.07
								c0.54,1.66,1.33,3.26,2.15,4.81c0.84,1.57,1.71,2.97,2.67,4.29c1.96,2.6,4.18,4.7,6.23,6.32c2.06,1.61,3.96,2.73,5.4,3.47
								c2.88,1.47,5.86,2.35,8.59,2.61c2.73,0.27,5.23-0.11,7.1-0.83c1.89-0.72,3.13-1.82,3.92-2.66
								C237.67,270.93,238.09,270.37,238.35,270.49z"/>
						</g>
					</g>
				</g>
				<g>
					<g>
						<g>
							<path class="st3" d="M226.27,276.89c0.45-0.28,1.89,1.22,3.03,4.39c0.51,1.58,1.01,3.68,0.36,6.09
								c-0.33,1.19-1.04,2.39-2.06,3.28c-1.16,0.97-2.51,1.35-3.81,1.57c-1.31,0.21-3.07,0.27-5.09,0c-2.02-0.27-4.32-0.8-6.65-1.89
								c-2.26-1.11-4.53-2.46-6.69-4.16c-2.14-1.7-4.12-3.79-5.45-6.22c-1.37-2.4-1.95-5.11-2.01-7.53
								c-0.08-2.44,0.49-4.7,1.39-6.36c0.89-1.67,1.94-2.79,2.65-3.54c0.73-0.74,1.19-1.11,1.25-1.06c0.06,0.06-0.28,0.53-0.89,1.36
								c-0.59,0.84-1.49,2.02-2.19,3.63c-0.71,1.6-1.09,3.65-0.91,5.91c0.18,2.26,0.8,4.65,2.13,6.77c2.6,4.31,7.4,7.3,11.61,9.26
								c2.08,0.91,4.21,1.37,6.04,1.58c1.83,0.22,3.38,0.14,4.45-0.03c1.07-0.17,2.05-0.51,2.65-1.02c0.69-0.61,1.16-1.37,1.41-2.19
								c0.5-1.66,0.23-3.45-0.1-4.88C226.65,278.94,225.77,277.18,226.27,276.89z"/>
						</g>
					</g>
				</g>
				<g>
					<g>
						<g>
							<path class="st3" d="M227.14,250.29c-0.42,0.76-1.04,0.46-1.81,0.09c-0.76-0.37-3.55-2.16-3.37-2.6
								c0.18-0.45,3.37,0.67,4.17,1.06C226.92,249.22,227.53,249.59,227.14,250.29z"/>
						</g>
					</g>
				</g>
				<g>
					<g>
						<g>
							<path class="st3" d="M224.34,248.86c-0.56-0.15-0.44-0.57-0.39-1.12c0.03-0.27,0.12-0.95,0.17-1.58
								c0.05-0.63,0.07-1.21,0.23-1.25c0.16-0.04,0.43,0.51,0.59,1.18c0.17,0.66,0.21,1.44,0.17,1.76
								C225.04,248.49,224.85,249,224.34,248.86z"/>
						</g>
					</g>
				</g>
				<g>
					<g>
						<g>
							<path class="st3" d="M219.91,253.49c-1.12,0.75-2.68,1.78-4.52,3.16c-0.46,0.34-0.94,0.72-1.44,1.13
								c-0.26,0.22-0.51,0.45-0.79,0.72c-0.16,0.18-0.32,0.37-0.47,0.56l-0.32,0.55c-0.77,1.54-0.81,3.29-0.5,4.87
								c0.6,3.2,2.77,6.24,5.75,8.04c2.97,1.83,6.48,2.51,9.79,2.42c3.33-0.07,6.51-1.08,9.09-2.43c2.6-1.37,4.68-3.02,6.32-4.52
								c3.24-3.04,4.83-5.39,4.57-5.62c-0.28-0.26-2.28,1.71-5.66,4.34c-1.7,1.29-3.77,2.71-6.2,3.85
								c-2.44,1.12-5.23,1.89-8.17,1.88c-2.92,0.01-5.94-0.68-8.32-2.19c-2.38-1.49-4.02-3.88-4.47-6.29
								c-0.24-1.19-0.15-2.32,0.25-3.11l0.08-0.14l0.04-0.07l0.02-0.04l0.01-0.02l0-0.01c0.2,0.13-0.28-0.19-0.18-0.13l0.19,0.11
								l0.01-0.01l0.02-0.02l0.04-0.04l0.07-0.08c0.17-0.16,0.37-0.35,0.58-0.53c0.43-0.36,0.87-0.71,1.31-1.04
								c1.74-1.32,3.29-2.37,4.37-3.13c1.11-0.73,2.67-1.75,4.53-2.98c1.87-1.24,4.07-2.59,6.47-4.26c2.37-1.66,4.79-3.66,7.19-5.6
								c2.39-1.92,4.94-3.7,7.54-3.53c1.18,0.08,2.53,0.72,3.74,1.42c1.22,0.73,2.37,1.56,3.44,2.4c2.14,1.7,3.99,3.45,5.53,4.95
								c3.1,3.02,4.82,5.13,5.06,5c0.19-0.07-0.03-0.83-0.69-1.9c-0.66-1.09-1.72-2.55-3.14-4.24c-1.43-1.68-3.2-3.59-5.36-5.49
								c-1.08-0.95-2.27-1.88-3.6-2.74c-1.35-0.83-2.82-1.68-4.77-1.91c-1.89-0.15-3.69,0.35-5.25,1.15
								c-1.56,0.79-2.89,1.79-4.15,2.76c-2.5,1.97-4.83,3.87-7.12,5.47c-2.27,1.58-4.53,2.98-6.39,4.23
								C222.57,251.67,221.01,252.72,219.91,253.49z"/>
						</g>
					</g>
				</g>
				<g>
					<g>
						<g>
							<path class="st3" d="M247.41,262.38c0.33,0.31-0.02,1.02-0.66,2.06c-0.59,1.08-1.48,2.53-2.21,4.3
								c-0.2,0.43-0.45,1.03-0.73,1.75c-0.3,0.71-0.59,1.55-0.91,2.46c-0.62,1.83-1.26,3.96-1.78,6c-1.06,4.08-1.71,7.78-1.94,7.75
								c-0.25-0.02-0.03-3.8,0.74-8.02c0.37-2.11,0.9-4.31,1.46-6.22c0.29-0.95,0.56-1.83,0.85-2.58c0.27-0.75,0.51-1.38,0.73-1.84
								c0.76-1.85,1.74-3.42,2.57-4.46C246.41,262.58,247.13,262.11,247.41,262.38z"/>
						</g>
					</g>
				</g>
			</g>
		</g>
	</g>
</g>
</svg>
